<svg id="Capa_1" data-name="Capa 1" xmlns="http://www.w3.org/2000/svg" viewBox="0 0 95.76 81.76"><defs><style>.cls-1,.cls-2,.cls-3{fill:none;stroke:#fdfefe;stroke-miterlimit:10;}.cls-1{stroke-width:2.93px;}.cls-2{stroke-width:3.51px;}.cls-3{stroke-width:4.1px;}</style></defs><title>Recetas</title><path class="cls-1" d="M11.49,20.91H3.33V81H37.5s1.81,6.76,11.79,6.76S62.9,81.9,62.9,81.9H96.16v-61H87.39" transform="translate(-1.87 -7.51)"/><path class="cls-2" d="M39.21,14.19c4,0,10.53,2.46,10.53,2.46V76.58a.93.93,0,0,1-1.41.75,35.42,35.42,0,0,0-17.18-4.56c-7.76,0-17.84,1.17-17.84,1.17V15.8s3.93-2.27,7-2.27" transform="translate(-1.87 -7.51)"/><path class="cls-2" d="M86.48,73.94V15.52s-12.1-2.27-19.65-2-17.08,3.12-17.08,3.12v60a.93.93,0,0,0,1.4.76,36.42,36.42,0,0,1,17-4.55C74.54,72.77,86.48,73.94,86.48,73.94Z" transform="translate(-1.87 -7.51)"/><path class="cls-3" d="M23.4,9.56H36.18a1.14,1.14,0,0,1,1.17,1.1V29.42l-7.48-7L22.3,29.49l-.07-18.83A1.14,1.14,0,0,1,23.4,9.56Z" transform="translate(-1.87 -7.51)"/></svg>