<svg id="Capa_1" data-name="Capa 1" xmlns="http://www.w3.org/2000/svg" viewBox="0 0 87.26 97.08"><defs><style>.cls-1,.cls-2,.cls-3{fill:none;stroke:#fbfdfc;stroke-miterlimit:10;}.cls-1{stroke-width:4.06px;}.cls-2{stroke-width:3.9px;}.cls-3{stroke-width:1.7px;}.cls-4{fill:#fbfdfc;}</style></defs><title>Tips</title><path class="cls-1" d="M73.43,46.92c0,9.16-5.82,14.3-10.11,24.3-5.17,12.05-4.25,25.42-13.86,25.42C40.37,96.64,42.19,83,37,71.22,32.51,61.09,25.5,56.08,25.5,46.92a24,24,0,1,1,47.93,0Z" transform="translate(-6.37 -1.58)"/><line class="cls-2" x1="31.43" y1="71.68" x2="55.99" y2="71.68"/><line class="cls-3" x1="33.93" y1="80.55" x2="55.99" y2="77.63"/><line class="cls-3" x1="52.11" y1="85.5" x2="35.59" y2="87.44"/><path class="cls-4" d="M37.88,48.47a17.1,17.1,0,0,1,2.75-9c2.11-2.91,6.11-4.18,9.6-4.22a1.06,1.06,0,0,0,0-2.12c-3.9,0-8.25,1.43-10.82,4.47s-3.48,7.15-3.65,10.89c-.06,1.37,2.07,1.36,2.12,0Z" transform="translate(-6.37 -1.58)"/><path class="cls-4" d="M20.35,37.17l-13-4.41c-1-.33-1.41,1.22-.43,1.56l13,4.41c1,.33,1.41-1.22.43-1.56Z" transform="translate(-6.37 -1.58)"/><path class="cls-4" d="M28.86,21.17l-9.07-11c-.69-.84-1.88.36-1.19,1.19l9.07,11c.69.84,1.88-.36,1.19-1.19Z" transform="translate(-6.37 -1.58)"/><path class="cls-4" d="M80.08,38.72l13-4.41c1-.33.56-1.89-.43-1.56l-13,4.41c-1,.33-.56,1.89.43,1.56Z" transform="translate(-6.37 -1.58)"/><path class="cls-4" d="M68.93,22.36,78,11.4c.69-.83-.5-2-1.19-1.19l-9.07,11c-.69.83.5,2,1.19,1.19Z" transform="translate(-6.37 -1.58)"/><path class="cls-4" d="M50.35,16.53V2.44a.89.89,0,0,0-1.78,0V16.53a.89.89,0,0,0,1.78,0Z" transform="translate(-6.37 -1.58)"/></svg>